<svg width="177" height="21" viewBox="0 0 177 21" fill="none" xmlns="http://www.w3.org/2000/svg">
<path d="M20.0441 16.6036L15.1241 4.09963C14.9561 3.64363 14.8121 3.25963 14.8121 2.94763C14.8121 2.13163 15.5561 1.86763 17.5241 1.79563V1.00363H10.9241V1.79563C11.6921 1.91563 12.3161 2.08363 12.5801 2.77963L13.9001 6.23563L9.82007 16.5796L5.06807 4.07563C4.87607 3.54763 4.75607 3.25963 4.75607 2.94763C4.75607 2.13163 5.50007 1.86763 7.46807 1.79563V1.00363H0.844065V1.79563C1.61207 1.91563 2.23607 2.05963 2.52407 2.77963L9.07607 20.0116H9.55607L14.5241 7.57963L19.5161 20.0116H19.9961L26.2361 2.77963C26.5001 2.03563 27.1481 1.91563 27.9161 1.79563V1.00363H21.9881V1.79563C23.9561 1.86763 24.7241 2.15563 24.7241 2.97163C24.7241 3.28363 24.5801 3.61963 24.4121 4.12363L20.0441 16.6036ZM34.1351 18.6916C32.8151 18.6916 31.8791 17.9476 31.8791 16.4356C31.8791 15.4036 32.4791 14.8276 33.3911 14.5396L38.0951 13.0996V16.7236C36.8711 17.8036 35.7191 18.6916 34.1351 18.6916ZM39.9191 11.2996C39.9191 8.22763 38.0231 6.93163 35.2391 6.93163C32.6951 6.93163 30.5831 8.08363 30.5831 9.93163C30.5831 10.3636 30.7751 10.8676 31.0871 11.0836L32.6711 10.9156C32.5511 10.5556 32.5271 10.2436 32.5271 9.95563C32.5271 8.61163 33.2951 8.03563 34.7831 8.03563C37.1111 8.03563 38.0951 9.69163 38.0951 11.5396V12.1156L33.3671 13.4836C31.5911 13.9876 29.8871 14.4676 29.8871 16.7476C29.8871 18.5236 31.1351 19.9876 33.5831 19.9876C35.9591 19.9876 37.2791 18.5956 38.1671 17.6116C38.2391 19.0996 39.1031 19.9636 40.2551 19.9636C41.0471 19.9636 41.7431 19.5796 42.4391 18.9316L42.1991 18.4756C41.8391 18.6196 41.4551 18.6916 41.1431 18.6916C40.3511 18.6916 39.9191 18.0676 39.9191 17.0116V11.2996ZM49.652 2.34763L49.772 0.283631H48.98L45.908 1.57963V2.03563L47.828 2.41963V17.6596C47.828 18.7636 46.892 18.8836 45.788 19.0276V19.7236H51.692V19.0276C50.588 18.8836 49.652 18.7636 49.652 17.6596V2.34763ZM59.5173 2.34763L59.6373 0.283631H58.8453L55.7733 1.57963V2.03563L57.6933 2.41963V17.6596C57.6933 18.7636 56.7573 18.8836 55.6533 19.0276V19.7236H61.5573V19.0276C60.4533 18.8836 59.5173 18.7636 59.5173 17.6596V2.34763ZM71.5934 6.93163C67.8974 6.93163 65.4254 9.78763 65.4254 13.8676C65.4254 17.0596 67.5614 19.9636 71.5454 19.9636C74.5454 19.9636 76.1774 18.3316 76.8494 16.4836L76.2494 16.2676C75.1694 17.6356 74.0654 18.4276 72.0014 18.4276C68.9054 18.4276 66.8654 16.0996 67.1054 12.5236H76.8014V11.9476C76.8014 9.09163 75.0254 6.93163 71.5934 6.93163ZM71.1134 8.15563C73.5134 8.15563 74.8094 9.59563 74.8094 11.4916H67.2734C67.6814 9.52363 69.1454 8.15563 71.1134 8.15563ZM84.1597 4.55563H83.6797C82.5037 6.11563 81.6877 6.81163 80.5117 7.65163V8.20363H82.3597V16.7476C82.3597 19.0276 83.7997 19.9636 85.6717 19.9636C87.0637 19.9636 88.0957 19.2916 88.6237 18.6916L88.4077 18.2356C87.7357 18.5476 87.1597 18.6676 86.5357 18.6676C84.9277 18.6676 84.1597 17.8276 84.1597 16.1476V8.20363H88.0237V7.17163H84.1597V4.55563ZM93.4582 18.4516C93.4582 19.2916 94.1302 19.9636 94.9702 19.9636C95.8102 19.9636 96.5062 19.2916 96.5062 18.4516C96.5062 17.6116 95.8102 16.9156 94.9702 16.9156C94.1302 16.9156 93.4582 17.6116 93.4582 18.4516ZM116.443 16.6996C116.611 17.1076 116.731 17.4676 116.731 17.7796C116.731 18.5956 115.987 18.8596 114.019 18.9316V19.7236H120.811V18.9316C120.043 18.8116 119.443 18.6676 119.131 17.9476L111.667 0.691632H109.387L110.107 2.22763L103.339 17.9476C103.027 18.6676 102.427 18.8116 101.659 18.9316V19.7236H107.683V18.9316C105.715 18.8596 104.947 18.5716 104.947 17.7556C104.947 17.4436 105.067 17.0836 105.235 16.6756L106.579 13.4836H115.051L116.443 16.6996ZM110.803 3.52363L114.595 12.4036H107.035L110.803 3.52363ZM124.06 19.7236H134.188L134.5 15.9316H133.78C133.324 18.1876 132.124 18.7396 130.924 18.7396H126.604L134.212 7.60363V7.17163H125.74L125.452 6.57163H124.66L124.324 10.6516H125.116C125.62 8.56363 126.412 8.15563 127.636 8.15563H131.812L124.06 19.3156V19.7236ZM141.949 4.55563H141.469C140.293 6.11563 139.477 6.81163 138.301 7.65163V8.20363H140.149V16.7476C140.149 19.0276 141.589 19.9636 143.461 19.9636C144.853 19.9636 145.885 19.2916 146.413 18.6916L146.197 18.2356C145.525 18.5476 144.949 18.6676 144.325 18.6676C142.717 18.6676 141.949 17.8276 141.949 16.1476V8.20363H145.813V7.17163H141.949V4.55563ZM156.074 6.93163C152.378 6.93163 149.906 9.78763 149.906 13.8676C149.906 17.0596 152.042 19.9636 156.026 19.9636C159.026 19.9636 160.658 18.3316 161.33 16.4836L160.73 16.2676C159.65 17.6356 158.546 18.4276 156.482 18.4276C153.386 18.4276 151.346 16.0996 151.586 12.5236H161.282V11.9476C161.282 9.09163 159.506 6.93163 156.074 6.93163ZM155.594 8.15563C157.994 8.15563 159.29 9.59563 159.29 11.4916H151.754C152.162 9.52363 153.626 8.15563 155.594 8.15563ZM166.913 13.0516C166.913 10.0036 168.833 8.08363 171.233 8.08363C173.297 8.08363 174.425 8.99563 174.425 10.7716V11.2516H175.385C175.865 11.0116 176.177 10.5076 176.177 9.83563C176.177 8.25163 174.713 6.93163 171.881 6.93163C167.945 6.93163 165.233 9.57163 165.233 13.7476C165.233 17.0596 167.345 19.9636 171.281 19.9636C174.233 19.9636 175.841 18.3316 176.513 16.4836L175.889 16.2676C174.833 17.6356 173.825 18.4276 171.737 18.4276C168.569 18.4276 166.913 16.0996 166.913 13.0516Z" fill="#2F1F49"/>
</svg>
