<svg width="39" height="31" viewBox="0 0 39 31" fill="none" xmlns="http://www.w3.org/2000/svg">
<path d="M33.897 6.14506L32.8977 3.2571C32.4788 2.04682 31.6056 1.06777 30.4296 0.501984C29.2587 -0.0637989 27.9262 -0.152356 26.6846 0.255992L8.75714 6.13522H5.31498C2.65513 6.13522 0.5 8.236 0.5 10.8337V26.3066C0.5 28.8994 2.65513 31.0051 5.32003 31.0051H33.685C36.3449 31.0051 38.5051 28.9043 38.5051 26.3066V10.8337C38.5051 8.30979 36.461 6.25821 33.9021 6.14998L33.897 6.14506ZM28.5167 20.5012L21.5113 27.3693C20.411 28.4418 18.6193 28.4418 17.5139 27.3693L10.4883 20.5209C9.38803 19.4483 9.38803 17.7018 10.4883 16.6243L17.5139 9.77591C18.6142 8.70338 20.406 8.70338 21.5113 9.77591L28.5167 16.6047C29.617 17.6772 29.617 19.4237 28.5167 20.5012ZM16.6711 6.13522L27.4972 2.58308C27.7445 2.49944 28.0019 2.46009 28.2593 2.46009C28.6227 2.46009 28.9811 2.54372 29.3142 2.70116C29.8845 2.97667 30.3085 3.4539 30.5104 4.03936L31.2321 6.1303H16.6711V6.13522Z" fill="#2F1F49"/>
</svg>
