<svg width="44" height="44" viewBox="0 0 44 44" fill="none" xmlns="http://www.w3.org/2000/svg">
<path fill-rule="evenodd" clip-rule="evenodd" d="M26.1464 2.48757L41.4704 17.8116C43.881 20.2221 43.881 24.1392 41.4704 26.5497L26.1464 41.9598C23.7359 44.3703 19.8188 44.3703 17.4083 41.9598L2.04129 26.5927C-0.369231 24.1822 -0.369231 20.2651 2.04129 17.8546L17.4083 2.48757C19.8188 0.0770586 23.7359 0.0770586 26.1464 2.48757ZM20.7658 6.36162L20.7228 6.40466L6.00142 21.126C5.39879 21.7287 5.39879 22.6326 5.95837 23.2352L6.00142 23.2783L20.6797 37.9566C21.2824 38.5592 22.1863 38.5592 22.7889 37.9996L22.832 37.9566L37.5103 23.2783C38.1129 22.6756 38.1129 21.6856 37.5103 21.083L22.875 6.44771C22.3154 5.84508 21.3685 5.84508 20.7658 6.36162ZM22.0572 12.8614L31.1397 21.9439C31.3118 22.1161 31.3118 22.3313 31.1397 22.5035L22.0572 31.5859C21.885 31.7581 21.6698 31.7581 21.4976 31.5859L12.4151 22.5035C12.2429 22.3313 12.2429 22.1161 12.4151 21.9439L21.4976 12.8614C21.6698 12.6892 21.885 12.6892 22.0572 12.8614Z" fill="#2F1F49"/>
</svg>
